<svg version="1.1" id="Layer_1" xmlns="http://www.w3.org/2000/svg" xmlns:xlink="http://www.w3.org/1999/xlink" x="0px" y="0px"
	 width="100%" viewBox="0 0 2048 2048" enable-background="new 0 0 2048 2048" xml:space="preserve">

<path fill="#22a4aa" opacity="1.000000" stroke="none" 
	d="
M343.927460,511.919403 
	C338.134888,514.335327 332.239075,516.533508 326.574738,519.219910 
	C318.724182,522.943115 311.035889,527.010254 303.299530,530.971985 
	C293.875031,535.798096 284.510345,540.742554 275.048584,545.494019 
	C267.862061,549.102905 260.587524,552.539734 253.310410,555.964355 
	C242.903458,560.861755 232.526779,565.800964 220.994156,567.682434 
	C213.251511,568.945557 205.540405,568.088318 199.122955,564.221558 
	C195.185013,561.848816 192.263748,556.765686 190.334015,552.277039 
	C184.812531,539.433716 180.406784,526.109558 174.853836,513.281189 
	C169.055939,499.886841 162.340073,486.892365 156.239182,473.624817 
	C154.777435,470.446014 154.251038,466.848602 153.141129,463.494415 
	C149.671799,453.010101 145.604858,442.685303 142.852112,432.019348 
	C141.611252,427.211395 142.486633,421.677155 143.223526,416.591492 
	C143.908722,411.862732 145.592545,407.263580 147.005157,402.659027 
	C148.916031,396.430359 152.480072,393.284882 158.883270,394.201904 
	C165.016724,395.080322 170.901886,397.661926 176.911942,399.441772 
	C182.137970,400.989471 187.458145,403.860382 192.604996,403.594696 
	C198.293701,403.301025 204.149490,400.725159 209.377777,398.056458 
	C225.634705,389.758301 241.554260,380.824341 258.942780,374.918121 
	C272.026733,370.474060 285.126007,365.995361 297.897034,360.749573 
	C302.840454,358.719025 307.498840,355.803314 311.011292,350.797760 
	C323.012726,333.694550 335.427704,316.857635 348.278290,300.381927 
	C358.425873,287.371735 369.103455,274.727234 380.266510,262.582947 
	C384.159668,258.347534 390.045135,255.781830 395.317932,253.021255 
	C400.700317,250.203339 406.309204,247.657242 412.075317,245.779556 
	C417.561462,243.993057 423.327362,242.604187 429.060608,242.127670 
	C444.005066,240.885559 457.507263,235.622086 470.659943,228.871613 
	C486.040100,220.977921 499.597809,210.571838 512.961365,199.736862 
	C522.034119,192.380920 531.816772,185.891968 541.369507,179.139160 
	C551.055237,172.292343 560.682678,165.341171 570.638794,158.904648 
	C581.860413,151.650070 593.304077,144.718094 604.870605,138.025009 
	C613.793701,132.861572 623.076660,128.322845 632.161682,123.435860 
	C644.366028,116.871010 656.410095,109.995338 668.753357,103.705368 
	C680.293518,97.824722 692.117249,92.497696 703.848572,86.996223 
	C712.922424,82.741020 722.236755,78.954491 731.093384,74.293091 
	C739.584473,69.824051 747.595520,64.448471 755.874207,59.567562 
	C759.729126,57.294811 763.524475,54.649784 767.709900,53.297340 
	C770.877747,52.273720 774.988586,52.055775 778.031128,53.201595 
	C784.162292,55.510586 789.897705,58.908592 795.680969,62.068478 
	C796.736694,62.645325 797.270447,64.208282 797.999390,65.345390 
	C799.225342,67.257896 800.238342,69.337296 801.660767,71.086372 
	C803.758789,73.666206 803.425903,80.047768 800.473267,84.887207 
	C795.048950,93.777946 789.607666,102.660362 784.025452,111.452278 
	C776.418762,123.432877 769.075623,135.609848 760.889465,147.186371 
	C749.797546,162.872116 736.220764,176.300980 721.278931,188.410843 
	C712.890320,195.209473 705.050232,202.680832 696.847290,209.714157 
	C692.659851,213.304535 688.118591,216.481476 683.915771,220.055145 
	C679.088135,224.160049 674.457153,228.496170 669.742371,232.733658 
	C666.272461,235.852264 662.805298,238.973785 659.773193,243.070328 
	C665.446228,242.698196 671.132690,242.462723 676.788025,241.909897 
	C681.166138,241.481903 685.488464,240.487259 689.866150,240.051895 
	C695.100891,239.531311 700.371033,239.376404 705.620911,238.995804 
	C723.643982,237.689148 741.664734,236.348801 759.687561,235.037979 
	C760.848572,234.953552 762.019836,235.002197 763.186340,235.002258 
	C791.685669,235.003830 820.187317,234.797592 848.683411,235.101120 
	C862.367065,235.246872 876.206482,235.269775 889.672852,237.327911 
	C903.818665,239.489853 918.042358,239.313461 932.157532,240.985657 
	C941.415100,242.082413 950.721985,242.780655 959.963745,243.987549 
	C971.457397,245.488556 982.920959,247.238525 994.371216,249.047638 
	C1008.479126,251.276627 1022.621033,253.363876 1036.634399,256.096619 
	C1049.306885,258.567841 1061.801880,261.936584 1074.423340,264.687958 
	C1080.583374,266.030762 1086.896606,266.666901 1093.063110,267.984528 
	C1101.531616,269.794037 1109.965820,271.797516 1118.345215,273.984375 
	C1134.515015,278.204468 1150.731323,282.289490 1166.750366,287.031860 
	C1182.431519,291.674164 1197.929077,296.951965 1213.436279,302.161926 
	C1226.642212,306.598785 1239.777222,311.252625 1252.888184,315.964813 
	C1264.625977,320.183472 1276.460083,324.205200 1287.940552,329.050598 
	C1302.760132,335.305267 1317.241211,342.357574 1331.923218,348.943665 
	C1342.929565,353.880859 1354.182739,358.294403 1365.031616,363.548737 
	C1375.419067,368.579529 1385.393799,374.456909 1395.611694,379.844971 
	C1404.414185,384.486633 1413.466675,388.675873 1422.117065,393.579498 
	C1435.302368,401.053925 1448.207642,409.021271 1461.287231,416.684570 
	C1469.652710,421.585754 1478.231934,426.129883 1486.499512,431.186920 
	C1492.289917,434.728638 1497.699829,438.889343 1503.307373,442.733063 
	C1516.053955,451.470184 1528.861084,460.119843 1541.558838,468.927185 
	C1549.653687,474.541992 1557.721436,480.210999 1565.570679,486.159973 
	C1572.550903,491.450256 1579.226929,497.143036 1586.013550,502.687164 
	C1599.309570,513.548950 1612.825562,524.158447 1625.786377,535.406982 
	C1633.552612,542.147034 1640.316895,550.028198 1647.757080,557.161133 
	C1655.650269,564.728577 1663.956299,571.866943 1671.806396,579.477234 
	C1677.713135,585.203369 1683.205688,591.358582 1688.840088,597.362854 
	C1691.490112,600.186890 1693.998169,603.143921 1696.643188,605.972961 
	C1702.641968,612.389404 1708.822144,618.642090 1714.672974,625.189880 
	C1720.476929,631.685181 1726.016479,638.420044 1731.579590,645.126465 
	C1735.650269,650.033813 1739.514404,655.112427 1743.573853,660.029358 
	C1748.692871,666.229370 1754.151733,672.162476 1759.041626,678.534912 
	C1766.662964,688.466919 1773.909424,698.686279 1781.353882,708.754883 
	C1785.290405,714.078857 1789.493042,719.215088 1793.250854,724.660095 
	C1799.473145,733.675903 1805.645752,742.739563 1811.456177,752.022888 
	C1821.591064,768.215210 1831.645386,784.465881 1841.327881,800.930542 
	C1847.939819,812.174072 1854.123779,823.690491 1860.024414,835.325623 
	C1866.650024,848.389893 1872.811157,861.692200 1879.040405,874.953979 
	C1883.144775,883.692383 1887.125000,892.493469 1890.957520,901.354309 
	C1895.729126,912.386353 1900.564453,923.404480 1904.855469,934.626221 
	C1908.119995,943.163818 1910.671875,951.980835 1913.372559,960.725525 
	C1917.011719,972.508972 1920.837158,984.251648 1923.945801,996.177734 
	C1927.651978,1010.395813 1930.805054,1024.762817 1933.966553,1039.116455 
	C1936.185303,1049.190918 1938.136230,1059.328979 1939.994629,1069.477539 
	C1942.761719,1084.589722 1945.700684,1099.685181 1947.870361,1114.887085 
	C1949.237305,1124.463745 1949.654541,1134.212646 1949.938721,1143.900635 
	C1950.775269,1172.426025 1951.910156,1200.962402 1951.776367,1229.489014 
	C1951.700317,1245.729980 1949.607300,1261.983765 1947.986450,1278.188110 
	C1946.656860,1291.483276 1944.983276,1304.761108 1942.907227,1317.959351 
	C1940.971680,1330.263794 1938.430054,1342.479004 1935.916992,1354.684326 
	C1934.156372,1363.235229 1932.126099,1371.736938 1929.966919,1380.197144 
	C1928.471191,1386.057983 1926.594727,1391.824219 1924.809326,1397.608154 
	C1922.586426,1404.809448 1920.427490,1412.035645 1917.980835,1419.161743 
	C1913.759155,1431.457642 1909.815430,1443.881226 1904.879883,1455.891724 
	C1898.364258,1471.747559 1891.112427,1487.305908 1883.969116,1502.896851 
	C1879.549438,1512.543091 1875.217163,1522.280029 1870.008057,1531.503174 
	C1860.278564,1548.729980 1850.089966,1565.704224 1839.787231,1582.597290 
	C1834.886841,1590.632324 1829.520386,1598.412109 1823.950073,1606.003052 
	C1813.503540,1620.239258 1803.115356,1634.544312 1792.037720,1648.284668 
	C1779.405762,1663.953003 1766.364136,1679.321045 1752.894775,1694.273804 
	C1743.825317,1704.342041 1733.727295,1713.486328 1724.046875,1723.000610 
	C1718.437012,1728.514038 1712.923462,1734.145142 1707.041992,1739.356934 
	C1699.399414,1746.129150 1691.427368,1752.529297 1683.610352,1759.104980 
	C1678.808472,1763.144409 1674.107178,1767.307007 1669.225952,1771.247559 
	C1660.841309,1778.016479 1652.455322,1784.791748 1643.879517,1791.313965 
	C1632.836426,1799.712280 1621.789307,1808.128174 1610.394775,1816.033447 
	C1602.041382,1821.828613 1593.192749,1826.925415 1584.446411,1832.134521 
	C1570.395386,1840.502808 1556.313721,1848.824097 1542.110840,1856.930542 
	C1534.873535,1861.061523 1527.389893,1864.772461 1519.937012,1868.512329 
	C1505.501465,1875.755737 1491.121216,1883.125244 1476.502197,1889.982056 
	C1465.714355,1895.041870 1454.636719,1899.501221 1443.592651,1903.993164 
	C1430.174683,1909.450806 1416.769653,1914.977051 1403.143433,1919.873779 
	C1393.138306,1923.469604 1382.777100,1926.070435 1372.591309,1929.169312 
	C1360.417236,1932.872925 1348.337769,1936.914307 1336.073730,1940.287476 
	C1325.337036,1943.240601 1314.376831,1945.371094 1303.560669,1948.047974 
	C1292.190552,1950.862427 1280.919556,1954.088135 1269.516724,1956.755737 
	C1263.187866,1958.236206 1256.672974,1958.912598 1250.251343,1960.006958 
	C1241.923828,1961.426147 1233.624756,1963.022583 1225.278931,1964.321167 
	C1214.506592,1965.997437 1203.712158,1967.543945 1192.905151,1968.980225 
	C1182.206055,1970.401978 1171.495239,1971.770142 1160.760742,1972.882812 
	C1149.105713,1974.090820 1137.432861,1975.596680 1125.740723,1975.890381 
	C1087.226196,1976.857666 1048.698975,1977.324707 1010.178101,1978.052490 
	C1009.075012,1978.073242 1007.466553,1978.552734 1006.981018,1979.355347 
	C1004.830688,1982.908936 1001.319946,1983.641968 997.785095,1983.932251 
	C991.040771,1984.486694 984.164368,1984.056763 977.529602,1985.159546 
	C969.726501,1986.456543 962.538086,1984.117065 955.104431,1983.082397 
	C947.320618,1981.999146 939.351013,1981.670776 931.781311,1979.753784 
	C916.834229,1975.968628 901.898682,1971.911987 887.353760,1966.834961 
	C875.378662,1962.655029 863.811768,1957.176392 852.366821,1951.646484 
	C842.504150,1946.880981 833.043091,1941.277222 823.456299,1935.950928 
	C819.273987,1933.627441 815.098511,1931.253174 811.134583,1928.583374 
	C802.354675,1922.669434 793.584534,1916.726074 785.045715,1910.473267 
	C776.151001,1903.959961 767.360107,1897.279663 758.839294,1890.287842 
	C749.119141,1882.312012 739.554504,1874.121704 730.294250,1865.619385 
	C724.474731,1860.276245 719.359802,1854.168335 713.887756,1848.442627 
	C711.108337,1845.534302 708.191467,1842.756958 705.418396,1839.842773 
	C699.365356,1833.480713 693.364563,1827.068970 688.271851,1821.664062 
	C685.030273,1829.767090 681.859863,1838.697021 677.891968,1847.257202 
	C675.251831,1852.952759 666.573242,1855.028564 660.667847,1851.923462 
	C651.520447,1847.113892 642.391907,1842.252197 633.435974,1837.098755 
	C621.959595,1830.495239 610.529724,1823.790894 599.335266,1816.725098 
	C592.119751,1812.170654 585.415710,1806.813110 578.386902,1801.953857 
	C570.349182,1796.397339 562.061035,1791.193237 554.154785,1785.459473 
	C548.167114,1781.117310 542.602356,1776.190918 536.858459,1771.513306 
	C526.393127,1762.991089 515.674744,1754.754639 505.567017,1745.827026 
	C499.134460,1740.145386 493.419678,1733.602539 487.732910,1727.138062 
	C481.171875,1719.679688 474.874481,1711.979248 468.684845,1704.206909 
	C461.849854,1695.624390 454.720917,1687.200073 448.708923,1678.056641 
	C440.747314,1665.948364 433.714996,1653.226807 426.350067,1640.729614 
	C424.304626,1637.258667 422.445160,1633.674561 420.587494,1630.097168 
	C413.777924,1616.983032 406.766724,1603.965820 400.310944,1590.679077 
	C396.644073,1583.132202 393.736908,1575.197021 390.793213,1567.322388 
	C385.764984,1553.871460 380.792572,1540.393311 376.169312,1526.799927 
	C373.998505,1520.417236 372.699585,1513.738281 370.996582,1507.196045 
	C368.662201,1498.227783 366.087006,1489.313843 364.059784,1480.276855 
	C362.656464,1474.021118 361.962372,1467.603027 361.025757,1461.246582 
	C359.626862,1451.753052 358.212708,1442.260376 356.956604,1432.747437 
	C355.863922,1424.471924 354.743744,1416.188110 354.073853,1407.872559 
	C353.424347,1399.810425 353.596954,1391.680420 352.899139,1383.624268 
	C352.467468,1378.640991 351.084778,1373.740112 350.336060,1369.871704 
	C348.325562,1376.746094 346.404938,1384.999268 343.494507,1392.887451 
	C338.554779,1406.275635 333.786865,1419.825806 325.150391,1431.469727 
	C321.175140,1436.829224 313.505157,1442.676392 308.465515,1438.892456 
	C302.251770,1434.226807 294.243988,1431.354980 291.772034,1422.325073 
	C290.357971,1417.159424 286.653107,1412.654907 284.309723,1407.696777 
	C282.880402,1404.672852 281.924622,1401.395386 281.021301,1398.157715 
	C277.115051,1384.157349 277.656891,1369.801025 278.170929,1355.527344 
	C278.810608,1337.765381 279.969696,1320.020630 281.027435,1302.275757 
	C281.555176,1293.421997 282.240692,1284.573608 283.058960,1275.741821 
	C284.628845,1258.796875 286.323547,1241.863525 288.010498,1224.929688 
	C288.608856,1218.923462 289.258392,1212.920166 290.018280,1206.932617 
	C291.983490,1191.447388 293.923737,1175.957886 296.063477,1160.496338 
	C297.900574,1147.221924 299.820160,1133.953369 302.035034,1120.737915 
	C304.123840,1108.274658 306.354797,1095.820190 309.056732,1083.478638 
	C311.876862,1070.597168 315.292358,1057.844482 318.526489,1045.055542 
	C320.931122,1035.546509 323.019806,1025.926514 326.029205,1016.607849 
	C332.069611,997.903748 338.433289,979.296326 345.083099,960.799744 
	C348.549377,951.158325 352.715179,941.751221 356.912323,932.394043 
	C362.039490,920.963379 367.385345,909.624817 372.899292,898.375183 
	C381.010223,881.827087 389.099121,865.259155 397.677399,848.952087 
	C404.722198,835.560059 412.456024,822.530090 419.903625,809.350403 
	C425.029572,800.279236 429.917267,791.058899 435.394379,782.203918 
	C444.070251,768.177429 453.062073,754.343201 462.087494,740.536987 
	C469.245575,729.587402 476.585602,718.754456 483.987183,707.967285 
	C486.769043,703.912964 489.992126,700.163696 492.928802,696.211914 
	C493.856384,694.963684 494.506897,693.509644 494.555756,691.148254 
	C481.079926,697.576904 467.742157,704.319275 454.082245,710.329590 
	C444.104462,714.719788 433.714813,718.178955 423.486084,721.992432 
	C414.610718,725.301392 405.386078,726.892151 395.941833,726.961975 
	C388.407440,727.017700 375.662415,717.496704 373.014313,710.533813 
	C371.158447,705.653931 368.652954,701.024414 366.680817,696.183960 
	C365.633453,693.613281 365.104065,690.831543 364.349854,688.176880 
	C350.165894,687.401611 337.214111,682.310059 324.655457,676.217651 
	C312.327576,670.237183 301.389587,662.137817 290.768158,653.464355 
	C281.250275,645.692078 276.668579,635.777222 276.140503,624.013611 
	C275.802032,616.474243 276.666077,608.848999 277.391388,601.300659 
	C278.731812,587.350891 286.488770,576.289368 295.103455,566.153625 
	C305.911224,553.437561 317.767334,541.612488 329.170227,529.402161 
	C334.225830,523.988586 339.279419,518.573120 344.717529,512.679932 
	C345.193756,511.849243 345.286407,511.497131 345.379028,511.144958 
	C344.895172,511.403107 344.411316,511.661255 343.927460,511.919403 
M1436.686523,1313.594971 
	C1445.073242,1313.367554 1453.480469,1312.677002 1461.840942,1313.045898 
	C1469.856445,1313.399658 1475.859131,1309.890747 1480.807983,1304.498291 
	C1484.946045,1299.989380 1488.433472,1294.813110 1491.750366,1289.638306 
	C1496.293335,1282.550903 1500.402222,1275.185303 1504.523315,1268.232300 
	C1501.860352,1266.823364 1500.249146,1265.475708 1498.433716,1265.090942 
	C1486.734131,1262.610596 1475.035034,1260.070923 1463.245117,1258.090942 
	C1454.552490,1256.631104 1445.674683,1256.293091 1436.964355,1254.916748 
	C1424.031616,1252.873291 1411.154175,1250.457520 1398.297119,1247.973022 
	C1394.522949,1247.243774 1390.446655,1246.449951 1387.305420,1244.440308 
	C1382.020264,1241.059082 1377.174438,1237.018677 1374.905518,1230.551636 
	C1372.792480,1224.528687 1369.609009,1218.884155 1367.435913,1212.878174 
	C1365.684326,1208.037109 1368.789917,1202.028076 1373.621338,1200.891724 
	C1381.723877,1198.985596 1389.920654,1197.392578 1398.153687,1196.185547 
	C1400.437378,1195.850586 1402.952148,1197.593262 1405.423584,1197.955933 
	C1421.829224,1200.362183 1438.271362,1202.523438 1454.661011,1205.031128 
	C1463.724609,1206.417847 1472.769409,1208.052246 1481.714355,1210.058716 
	C1493.818726,1212.773804 1505.827759,1215.919189 1517.856934,1218.961670 
	C1520.352173,1219.592773 1522.732788,1220.665039 1525.209229,1221.385864 
	C1530.613159,1222.958984 1536.028198,1224.504150 1541.487061,1225.867065 
	C1542.159790,1226.034912 1543.338135,1225.205688 1543.926636,1224.529175 
	C1552.521851,1214.648560 1561.276978,1204.895020 1569.547852,1194.747681 
	C1579.060913,1183.076416 1588.104736,1171.023438 1597.414307,1159.184937 
	C1600.177979,1155.670532 1603.087891,1152.265137 1606.041382,1148.906982 
	C1611.294556,1142.933838 1616.674683,1137.072388 1621.917603,1131.090454 
	C1624.794678,1127.807861 1627.500000,1124.374512 1630.503174,1120.742676 
	C1621.284790,1114.421875 1612.519775,1108.578247 1603.931641,1102.485229 
	C1590.157471,1092.712524 1576.400269,1082.909058 1562.855591,1072.823608 
	C1558.876221,1069.860596 1554.881348,1066.381104 1552.270630,1062.264893 
	C1549.514526,1057.919678 1552.060547,1054.793457 1557.227783,1053.946167 
	C1564.203735,1052.802246 1570.476074,1054.434692 1577.054077,1056.795410 
	C1592.986572,1062.512939 1609.206543,1067.428833 1625.309326,1072.671753 
	C1627.279175,1073.313110 1629.257202,1073.934937 1631.203491,1074.642578 
	C1639.380493,1077.615356 1647.546875,1080.617188 1655.578003,1083.557617 
	C1656.022461,1081.619873 1656.625854,1080.067749 1656.697632,1078.491455 
	C1657.038208,1071.025757 1658.823730,1063.244873 1651.203613,1057.736328 
	C1643.952881,1052.494751 1636.835449,1047.051270 1629.875122,1041.429443 
	C1617.802612,1031.678223 1605.887573,1021.731689 1593.923340,1011.846741 
	C1584.750610,1004.268188 1575.535156,996.739380 1566.462769,989.042114 
	C1554.682129,979.046997 1542.884277,969.063843 1531.370361,958.766235 
	C1525.091553,953.150757 1519.338013,946.941589 1513.432495,940.916809 
	C1507.920898,935.293945 1502.237061,929.803406 1497.142212,923.817810 
	C1489.962891,915.382996 1483.178223,906.606506 1476.373535,897.860413 
	C1471.156982,891.155273 1465.994019,884.394470 1461.129028,877.433411 
	C1455.860962,869.895569 1451.552124,861.619263 1445.770264,854.524597 
	C1437.253052,844.073914 1428.218628,833.958496 1418.585327,824.537720 
	C1413.204224,819.275269 1406.564819,814.889099 1399.772461,811.590210 
	C1392.276733,807.949585 1384.080933,805.526245 1375.968506,803.429993 
	C1362.417236,799.928467 1348.698853,797.068481 1335.032471,794.020691 
	C1329.336792,792.750488 1323.544312,791.892700 1317.883423,790.493225 
	C1306.980103,787.797791 1296.128296,784.891479 1285.275146,781.997314 
	C1270.474121,778.050232 1255.702637,773.992065 1240.897827,770.059387 
	C1230.772339,767.369690 1220.636963,764.707947 1210.458130,762.230164 
	C1202.642334,760.327637 1194.762085,758.683105 1186.890991,757.015991 
	C1181.342651,755.840881 1175.529297,755.475830 1170.240845,753.601624 
	C1157.026489,748.918579 1143.171387,748.883911 1129.628418,748.525391 
	C1119.067627,748.245728 1107.755249,748.684143 1098.424438,755.909729 
	C1093.974854,759.355347 1088.270142,761.448914 1084.503174,765.445618 
	C1078.608154,771.700012 1073.930298,779.092224 1068.639404,785.927185 
	C1054.669922,803.973450 1047.549072,825.098328 1042.239990,846.788818 
	C1039.893921,856.373596 1039.448364,866.544678 1039.143311,876.480408 
	C1038.645020,892.708374 1039.311768,908.905823 1044.026733,924.679138 
	C1046.561646,933.159119 1048.542236,941.803650 1051.011108,950.304688 
	C1057.485352,972.597229 1069.701660,992.351135 1079.239014,1013.284485 
	C1085.403931,1026.816040 1093.425293,1039.508179 1099.469116,1053.086426 
	C1105.447266,1066.517212 1110.165161,1080.524902 1115.115234,1094.394043 
	C1122.519165,1115.138550 1129.457642,1136.050049 1136.945435,1156.763672 
	C1142.556641,1172.286255 1148.626465,1187.646240 1154.674927,1203.006592 
	C1158.408325,1212.487915 1162.242188,1221.944946 1166.473145,1231.210938 
	C1171.030640,1241.192505 1175.773560,1251.119507 1181.043335,1260.737305 
	C1186.633789,1270.940308 1193.777710,1280.548462 1204.265747,1285.659790 
	C1214.007202,1290.407471 1224.809204,1293.380249 1235.449463,1295.783447 
	C1249.197266,1298.888916 1263.208862,1300.929199 1277.179688,1302.915649 
	C1291.359375,1304.931885 1305.597290,1306.682129 1319.865112,1307.896362 
	C1336.420044,1309.305176 1353.027466,1310.167847 1369.626953,1310.956177 
	C1382.214966,1311.553955 1394.826172,1311.654175 1407.425781,1312.022827 
	C1407.964600,1312.038574 1408.489502,1312.525269 1409.571411,1313.431519 
	C1418.350830,1313.376709 1427.130371,1313.321777 1436.686523,1313.594971 
M715.054749,131.875748 
	C714.422058,132.035110 713.739075,132.090546 713.164185,132.369141 
	C701.706726,137.921341 690.177307,143.333527 678.836914,149.116272 
	C666.160278,155.580368 653.570618,162.227478 641.101379,169.082764 
	C626.247131,177.249268 611.531555,185.670151 596.820801,194.094070 
	C592.630554,196.493515 588.574951,199.156982 584.617615,201.927979 
	C577.448120,206.948151 570.399170,212.140488 563.299316,217.260147 
	C558.407043,220.787979 553.466309,224.250839 548.632385,227.856934 
	C541.748657,232.992188 535.082764,238.429977 528.071106,243.380661 
	C517.754150,250.665009 507.529449,258.165222 496.684845,264.594116 
	C484.793365,271.643677 472.605042,278.453125 459.872192,283.746094 
	C448.255951,288.574860 435.818390,291.325684 423.014679,292.191071 
	C417.238922,292.581421 410.851166,292.955627 406.484192,298.040039 
	C400.369263,305.159546 393.995697,312.083069 388.274933,319.508148 
	C381.588806,328.186127 375.602478,337.399536 369.093048,346.218689 
	C363.913544,353.236023 358.089661,359.791046 353.113007,366.941895 
	C345.098663,378.457458 337.190430,389.894073 324.151947,396.495605 
	C318.453888,399.380646 313.281464,403.433472 307.407013,405.811432 
	C297.551819,409.800781 287.209717,412.573944 277.287140,416.413544 
	C266.357239,420.642944 255.597641,425.337891 244.901627,430.137085 
	C237.811600,433.318298 230.979095,437.070374 224.003448,440.510376 
	C215.950760,444.481628 207.867462,448.390747 200.054138,452.201630 
	C209.109497,473.406921 218.441422,495.259857 228.086823,517.846863 
	C237.006287,513.552795 245.520142,509.461243 254.027557,505.356415 
	C265.055420,500.035431 276.108002,494.764465 287.094696,489.359680 
	C298.038330,483.976135 308.783203,478.170410 319.855713,473.072052 
	C330.862244,468.003967 342.096893,463.406403 353.364197,458.936859 
	C363.215210,455.029144 373.250214,451.585114 383.204987,447.939087 
	C384.425720,447.492035 385.631744,446.986938 386.880737,446.638428 
	C391.338531,445.394714 395.764160,443.970306 400.291321,443.057312 
	C406.089935,441.887909 410.526794,445.679779 415.517792,447.637573 
	C422.813477,450.499390 430.904358,452.031189 432.368469,461.746490 
	C432.430328,462.157043 433.011414,462.481445 433.331207,462.862244 
	C436.624969,466.784485 436.953033,473.665405 433.982849,477.605469 
	C430.851898,481.758759 427.832947,486.011505 424.478516,489.978516 
	C414.427948,501.864594 404.597565,513.966919 394.011261,525.362488 
	C380.463806,539.945557 366.241821,553.901062 352.363770,568.178772 
	C349.833588,570.781799 347.571869,573.644592 345.162262,576.366272 
	C342.181549,579.732971 339.106537,583.018677 336.196472,586.444946 
	C331.169952,592.363098 325.859680,598.098328 321.438202,604.446350 
	C319.411743,607.355774 318.526672,611.448303 322.852692,614.434387 
	C330.245300,619.537231 337.158417,625.380371 344.784149,630.083618 
	C349.753052,633.148132 355.470856,635.326477 361.136383,636.845276 
	C367.369904,638.516235 373.900085,639.391968 380.354004,639.825073 
	C385.029633,640.138977 391.139771,640.877380 394.247620,638.428345 
	C401.808289,632.470337 407.806763,624.574158 414.780090,617.815186 
	C423.215942,609.638672 431.569092,601.276428 440.750397,593.993408 
	C453.929871,583.538818 467.661713,573.752258 481.466003,564.122498 
	C492.904358,556.143188 504.474335,548.254761 516.560364,541.328247 
	C529.573425,533.870544 542.995300,526.991760 556.710571,520.927551 
	C574.213623,513.188599 591.988525,505.950378 610.027588,499.575195 
	C623.496399,494.815125 637.527283,491.601196 651.391357,488.022247 
	C658.323730,486.232697 665.485046,485.348907 672.467590,483.730743 
	C682.948853,481.301849 693.302979,478.297272 703.827026,476.089478 
	C711.771606,474.422791 719.899048,473.630737 727.942139,472.429688 
	C735.495544,471.301788 743.040527,470.116882 750.597717,469.015167 
	C757.219421,468.049866 763.859985,467.213074 770.479248,466.231873 
	C777.473145,465.195129 784.418152,463.690643 791.444702,463.044495 
	C802.099792,462.064667 812.809326,461.687897 823.490723,460.978607 
	C828.573975,460.641052 833.651184,460.184814 838.721069,459.681061 
	C847.444214,458.814392 856.143616,457.654236 864.881897,457.008545 
	C876.552124,456.146179 888.426636,456.678772 899.882263,454.697571 
	C909.734314,452.993683 919.418762,449.605255 929.486023,450.161530 
	C941.602478,450.830994 953.766052,450.479736 965.792786,453.753540 
	C976.068604,456.550690 986.932434,457.120667 997.466980,459.053223 
	C1008.775696,461.127899 1020.066711,463.377258 1031.251709,466.029785 
	C1047.095581,469.787262 1062.967529,473.533569 1078.581055,478.122986 
	C1093.355103,482.465637 1108.121094,487.143463 1122.322632,493.041626 
	C1137.581177,499.378784 1152.265991,507.134491 1167.040405,514.589905 
	C1183.584961,522.938721 1199.306152,532.650818 1214.026855,543.970947 
	C1225.382690,552.703552 1237.246826,560.802795 1248.294800,569.900208 
	C1258.612061,578.395813 1268.843140,587.203186 1277.840820,597.036499 
	C1286.926514,606.966064 1294.949707,617.985413 1302.530884,629.143982 
	C1311.848755,642.858582 1319.682739,657.568665 1325.513184,673.096008 
	C1330.091797,685.289429 1333.689575,697.901794 1336.921143,710.533203 
	C1339.163940,719.300110 1340.045166,728.415405 1341.557495,737.511597 
	C1344.964233,736.335632 1348.675659,735.054443 1352.387207,733.773315 
	C1352.686157,734.285217 1352.984985,734.797119 1353.283936,735.309021 
	C1350.501709,739.270691 1344.985596,739.557861 1341.635376,742.623718 
	C1346.004639,744.051331 1350.437134,745.821167 1355.029297,746.928833 
	C1363.017822,748.855774 1371.197510,750.029114 1379.124268,752.160767 
	C1386.995239,754.277405 1394.755249,756.916992 1402.383179,759.804749 
	C1417.106445,765.378662 1430.671631,772.903015 1442.813477,783.169128 
	C1454.962769,793.441528 1465.144287,805.349487 1474.510254,818.051880 
	C1481.314575,827.280212 1487.885986,836.679932 1494.595459,845.978638 
	C1499.895874,853.324524 1505.090332,860.754639 1510.618164,867.926697 
	C1517.345459,876.654785 1523.719116,885.792786 1531.398926,893.622192 
	C1550.559937,913.156067 1569.297119,933.164673 1591.629395,949.370422 
	C1601.431152,956.483276 1610.109253,965.125977 1619.521240,972.799561 
	C1630.354858,981.632141 1641.915649,989.629517 1652.274780,998.971802 
	C1662.606812,1008.289551 1674.042114,1016.249573 1683.192871,1027.139038 
	C1692.441040,1038.144653 1697.761963,1050.119995 1698.936646,1064.022705 
	C1700.650879,1084.312866 1696.490356,1103.900269 1690.726196,1123.221313 
	C1689.454590,1127.483398 1688.859131,1131.979492 1687.275513,1136.108154 
	C1685.232544,1141.434448 1682.276978,1146.405640 1680.134399,1151.699829 
	C1677.247070,1158.834229 1669.934570,1160.583740 1664.846436,1155.201416 
	C1659.069702,1161.826660 1653.176270,1168.369019 1647.523315,1175.113037 
	C1634.401123,1190.767700 1620.592651,1205.933350 1608.562012,1222.393311 
	C1595.979248,1239.609009 1582.345703,1255.721069 1566.995483,1270.418823 
	C1561.802856,1275.390625 1556.034180,1279.671753 1548.315552,1280.092773 
	C1547.281250,1280.149170 1545.805786,1281.088623 1545.385010,1282.008179 
	C1541.911011,1289.600952 1538.813354,1297.368774 1535.246948,1304.916016 
	C1532.420044,1310.898682 1529.273071,1316.750610 1525.926514,1322.460327 
	C1523.606323,1326.419067 1520.299072,1329.819580 1518.138306,1333.847900 
	C1510.838257,1347.458130 1498.812622,1355.379639 1484.855957,1359.772583 
	C1471.378296,1364.014771 1457.159180,1365.064331 1442.287476,1363.356567 
	C1430.832520,1363.250000 1419.377563,1363.143311 1407.011108,1362.990356 
	C1393.348999,1362.326904 1379.689087,1361.615845 1366.024170,1361.016235 
	C1356.428711,1360.595093 1346.826538,1360.325195 1337.227417,1359.988892 
	C1336.730835,1359.971558 1336.229980,1360.001709 1335.737915,1359.948364 
	C1323.629272,1358.637573 1311.520996,1357.325562 1299.414307,1355.997559 
	C1290.639160,1355.035034 1281.841675,1354.228638 1273.099854,1353.021606 
	C1265.078857,1351.914062 1257.094360,1350.493042 1249.137695,1348.979614 
	C1235.621094,1346.408447 1221.977295,1344.265503 1208.705688,1340.741821 
	C1201.213135,1338.752686 1193.806519,1335.189087 1187.344604,1330.864990 
	C1177.834839,1324.501343 1168.058594,1317.849487 1160.518433,1309.421509 
	C1152.883667,1300.887817 1147.535400,1290.214966 1141.733032,1280.163086 
	C1136.256836,1270.676392 1131.084595,1260.965698 1126.524292,1251.011841 
	C1121.455933,1239.949097 1117.177002,1228.521606 1112.652344,1217.213623 
	C1107.050293,1203.212402 1101.323853,1189.254395 1096.071167,1175.121582 
	C1091.429688,1162.633301 1087.279053,1149.959351 1083.069824,1137.314575 
	C1078.870972,1124.700684 1075.209106,1111.897949 1070.674561,1099.409302 
	C1066.953003,1089.159546 1062.446533,1079.182617 1058.009033,1069.208740 
	C1054.139771,1060.512451 1049.880371,1051.989868 1045.794800,1043.389771 
	C1042.813843,1037.114868 1039.873779,1030.820190 1036.847168,1024.567383 
	C1031.238403,1012.980286 1025.480713,1001.464233 1019.982422,989.825317 
	C1017.123108,983.772522 1014.517700,977.585571 1012.100159,971.342041 
	C1009.221558,963.907959 1006.182068,956.479248 1004.112122,948.805481 
	C1002.126892,941.445923 1001.156616,933.796814 999.988281,926.236694 
	C998.526428,916.776917 996.288879,907.285645 996.218689,897.794373 
	C996.082336,879.345459 995.651855,860.995422 999.452942,842.477600 
	C1002.360840,828.310791 1005.882935,814.415283 1010.561035,800.908875 
	C1014.698303,788.963989 1020.456726,777.469299 1026.530396,766.338318 
	C1032.358276,755.658142 1038.978882,745.302612 1046.267456,735.565186 
	C1051.169189,729.016724 1057.391724,723.231812 1063.817627,718.099731 
	C1074.703369,709.405884 1087.887695,705.058044 1101.228027,702.158203 
	C1116.065186,698.933105 1131.118774,696.401184 1146.530029,698.916687 
	C1157.510986,700.709106 1168.662109,700.571533 1179.598022,703.758728 
	C1196.145996,708.581543 1213.125488,711.915100 1229.896851,715.983215 
	C1241.145630,718.711792 1252.371338,721.540710 1263.572021,724.460449 
	C1279.898071,728.716125 1296.192505,733.093811 1312.500366,737.419495 
	C1309.831909,730.262817 1306.403809,724.212952 1303.033569,718.131042 
	C1295.782837,705.046082 1288.952515,691.708374 1281.212891,678.920349 
	C1274.290405,667.482727 1266.895142,656.246277 1258.745117,645.663086 
	C1251.901001,636.775696 1244.323730,628.208679 1235.899170,620.839417 
	C1222.948730,609.511047 1209.247803,598.986267 1195.385010,588.772522 
	C1184.435913,580.705505 1173.060181,573.113647 1161.328369,566.242188 
	C1149.893311,559.544434 1137.955078,553.612854 1125.885620,548.118408 
	C1115.080444,543.199524 1103.860352,539.157593 1092.701660,535.060120 
	C1083.772217,531.781250 1074.756958,528.656067 1065.606812,526.075928 
	C1050.464111,521.806030 1035.253418,517.725220 1019.936279,514.142395 
	C1007.835266,511.311798 995.585083,508.991699 983.296753,507.136993 
	C976.124634,506.054565 968.750122,506.230988 961.461487,506.020477 
	C947.698975,505.623016 933.919678,505.602356 920.176575,504.873932 
	C916.339539,504.670593 912.615356,502.502777 908.818115,501.303711 
	C907.162598,500.780914 905.447815,500.035858 903.769226,500.059113 
	C886.837646,500.293579 869.908020,500.666656 852.977844,501.000488 
	C852.478027,501.010345 851.973572,500.976288 851.479004,501.031586 
	C839.595215,502.359833 827.741638,504.260406 815.821533,504.877350 
	C803.562012,505.511810 791.395203,505.790039 779.370239,508.907990 
	C773.278931,510.487335 766.719421,510.176666 760.414368,511.034515 
	C749.192139,512.561523 737.985046,514.219666 726.804382,516.025940 
	C717.358521,517.552002 707.938416,519.258789 698.544434,521.079041 
	C687.112305,523.294189 675.597595,525.241211 664.339111,528.156006 
	C648.785950,532.182739 633.229370,536.400818 618.063538,541.659790 
	C603.530945,546.699158 589.395691,552.943115 575.274536,559.091248 
	C564.674561,563.706177 554.062134,568.458191 544.020508,574.146851 
	C532.138367,580.878174 520.546021,588.232849 509.397827,596.122559 
	C491.386292,608.869446 473.362366,621.686829 456.261169,635.601990 
	C444.342102,645.300415 433.905426,656.831970 422.930603,667.670288 
	C420.643707,669.928772 418.902374,672.739746 416.909637,675.296143 
	C417.239929,675.695312 417.570251,676.094482 417.900543,676.493652 
	C421.260315,674.657898 424.542511,672.658997 427.994781,671.017822 
	C437.302216,666.592834 446.731018,662.422180 456.021179,657.962036 
	C468.233032,652.099304 480.226105,645.764404 492.560638,640.178833 
	C503.474548,635.236572 514.645813,630.824524 525.872375,626.630615 
	C530.069519,625.062744 535.286255,625.774109 539.097717,623.709778 
	C549.781982,617.923584 558.641296,622.779358 567.636047,627.387817 
	C571.017700,629.120422 572.436340,636.526611 571.690674,641.640808 
	C570.511719,649.726379 568.978760,657.626404 565.069946,664.919189 
	C561.536987,671.510864 558.619995,678.487549 554.565002,684.731873 
	C548.428040,694.182312 541.530579,703.138306 534.973083,712.316406 
	C529.745667,719.632812 524.587708,726.999268 519.316162,734.283630 
	C514.953186,740.312500 510.297668,746.135864 506.085388,752.265747 
	C501.506836,758.928589 497.262817,765.822754 492.922791,772.647705 
	C486.164490,783.275513 479.333313,793.859619 472.752167,804.596558 
	C467.852417,812.590271 463.322723,820.810242 458.586182,828.904785 
	C452.852081,838.704163 446.992554,848.431030 441.346527,858.280518 
	C438.263672,863.658569 435.507324,869.223877 432.608643,874.707336 
	C429.546936,880.499146 426.392700,886.244812 423.460327,892.101440 
	C420.530701,897.952515 417.797852,903.903137 415.028412,909.833313 
	C410.323456,919.908081 405.502258,929.932678 401.024506,940.108032 
	C397.486053,948.148926 394.408936,956.392212 391.091644,964.531189 
	C387.845184,972.496643 384.248596,980.335083 381.365326,988.428589 
	C378.241394,997.197571 375.807312,1006.210632 372.993103,1015.092102 
	C369.996277,1024.549927 366.736694,1033.927856 363.908752,1043.434937 
	C361.432373,1051.760010 359.124542,1060.155396 357.229462,1068.628662 
	C354.576630,1080.489990 352.295868,1092.437012 350.003845,1104.375854 
	C347.617462,1116.806152 345.289459,1129.250366 343.163574,1141.727173 
	C341.884857,1149.231812 340.991882,1156.804199 340.016632,1164.357910 
	C339.220947,1170.520874 338.672699,1176.716675 337.815399,1182.870239 
	C336.290771,1193.813843 334.479980,1204.718506 333.037048,1215.672241 
	C331.230469,1229.386475 329.428040,1243.109985 328.088562,1256.874634 
	C327.041443,1267.634644 326.702667,1278.463745 326.049133,1289.262085 
	C327.797485,1286.509033 328.658142,1283.497437 329.757660,1280.575928 
	C334.468750,1268.058105 338.690430,1255.310181 344.253143,1243.179199 
	C346.854553,1237.506226 350.151733,1231.096313 358.481079,1230.636230 
	C362.178955,1230.431885 365.702362,1228.020752 369.436615,1227.245605 
	C372.862396,1226.534668 377.334900,1225.277100 379.772552,1226.792236 
	C382.901642,1228.737061 385.745026,1230.847290 389.397369,1231.916626 
	C394.370483,1233.372559 393.901123,1238.015869 393.892731,1241.684937 
	C393.868195,1252.441040 393.011688,1263.197510 393.067322,1273.950806 
	C393.196259,1298.878174 393.720154,1323.803101 393.984772,1348.730103 
	C394.141418,1363.485107 393.911102,1378.209106 396.883301,1392.831177 
	C398.374725,1400.168579 398.145782,1407.839478 399.034363,1415.319214 
	C400.569855,1428.243652 401.744324,1441.258057 404.220001,1454.011597 
	C407.207550,1469.401978 411.024689,1484.660645 415.168030,1499.788818 
	C418.981445,1513.712280 423.401154,1527.491577 428.122040,1541.137817 
	C431.786804,1551.731079 435.953644,1562.190552 440.574005,1572.403320 
	C446.175720,1584.785034 452.066071,1597.077515 458.612579,1608.979004 
	C465.311249,1621.156860 472.566589,1633.075073 480.302612,1644.621704 
	C486.990051,1654.603394 494.463623,1664.089722 502.012329,1673.454468 
	C509.566650,1682.826416 517.351807,1692.051758 525.593445,1700.817017 
	C531.363464,1706.953491 538.079895,1712.198608 544.354309,1717.863281 
	C546.560852,1719.855347 548.555847,1722.114746 550.914490,1723.899292 
	C557.869629,1729.161255 564.962708,1734.240845 571.993591,1739.403076 
	C579.219910,1744.708862 586.346191,1750.156372 593.681885,1755.306152 
	C602.019470,1761.159302 610.518555,1766.784058 618.994446,1772.437744 
	C621.813171,1774.317993 624.777405,1775.980103 627.597351,1777.694580 
	C625.994080,1773.243286 624.657043,1768.969727 622.930542,1764.859741 
	C619.761841,1757.316772 615.886353,1750.039062 613.169189,1742.345581 
	C608.740784,1729.807617 605.171570,1716.969116 600.927856,1704.362427 
	C597.376526,1693.812622 597.848267,1682.975830 598.099670,1672.170044 
	C598.207458,1667.536133 600.533203,1664.464111 605.912292,1663.867188 
	C611.319336,1663.267212 616.594788,1661.543091 621.956726,1660.453857 
	C625.669983,1659.699463 629.458496,1658.871094 632.287415,1662.698120 
	C632.788879,1663.376465 634.021423,1664.043579 634.779846,1663.914185 
	C638.812012,1663.227539 640.228210,1666.079590 641.444336,1668.832764 
	C645.879761,1678.873657 649.556580,1689.296753 654.620422,1699.001221 
	C661.044617,1711.312988 667.679626,1723.688477 675.790771,1734.903198 
	C686.495422,1749.703247 698.429749,1763.654785 710.382507,1777.498535 
	C720.371033,1789.067261 731.128052,1799.973999 741.581299,1811.139404 
	C746.504028,1816.397583 751.281738,1821.823364 756.545532,1826.721436 
	C762.201111,1831.984253 768.380798,1836.680542 774.276062,1841.689575 
	C783.369629,1849.416016 792.310486,1857.326538 801.531006,1864.897217 
	C805.512512,1868.166016 810.028320,1870.784668 814.304932,1873.693481 
	C821.733887,1878.746704 828.915466,1884.225098 836.660156,1888.736694 
	C846.102905,1894.237183 855.879333,1899.222046 865.770020,1903.881104 
	C876.493896,1908.932739 887.291565,1913.998291 898.468018,1917.871948 
	C910.267944,1921.961914 922.485840,1924.929932 934.647644,1927.863525 
	C943.598450,1930.022583 952.764954,1931.275879 961.811951,1933.051880 
	C967.334778,1934.136108 972.921265,1935.092285 978.289185,1936.729004 
	C989.404846,1940.118408 1000.202332,1944.426758 1012.208191,1944.088989 
	C1025.863525,1943.704590 1039.538086,1944.003052 1053.204224,1943.998169 
	C1057.703735,1943.996460 1062.222900,1944.239746 1066.699097,1943.909912 
	C1078.417480,1943.046509 1090.104004,1941.716919 1101.828613,1940.977051 
	C1111.708252,1940.353516 1121.631470,1940.442261 1131.520386,1939.929810 
	C1136.573486,1939.668091 1141.594116,1938.778442 1146.629395,1938.172729 
	C1155.312866,1937.128052 1163.990356,1936.031128 1172.682129,1935.060547 
	C1177.236938,1934.551758 1181.861450,1934.546387 1186.376221,1933.824097 
	C1197.566406,1932.033813 1208.711060,1929.958618 1219.875244,1928.004150 
	C1229.566040,1926.307373 1239.256714,1924.610107 1248.950562,1922.930542 
	C1255.645752,1921.770386 1262.432861,1921.000488 1269.025146,1919.416626 
	C1281.036987,1916.530884 1292.934937,1913.171265 1304.879761,1910.006714 
	C1319.967773,1906.009644 1335.215576,1902.524048 1350.101196,1897.878052 
	C1367.440796,1892.466309 1384.490112,1886.114136 1401.614502,1880.027100 
	C1414.473022,1875.456543 1427.330811,1870.863647 1440.036743,1865.891479 
	C1448.366821,1862.631714 1456.456055,1858.744873 1464.598267,1855.018921 
	C1476.214966,1849.703003 1487.834595,1844.387573 1499.345947,1838.849487 
	C1504.809448,1836.221191 1509.973022,1832.976807 1515.366333,1830.192993 
	C1522.611450,1826.453003 1530.168213,1823.266479 1537.192383,1819.160034 
	C1547.593018,1813.079468 1557.614136,1806.352661 1567.851807,1799.989502 
	C1576.087769,1794.870361 1584.635498,1790.219482 1592.634888,1784.760132 
	C1605.385986,1776.057861 1617.950073,1767.061279 1630.308716,1757.809082 
	C1643.080566,1748.247681 1655.810913,1738.586792 1668.008911,1728.315552 
	C1679.814087,1718.374878 1691.097900,1707.790161 1702.278687,1697.139648 
	C1712.557495,1687.348389 1722.795410,1677.456787 1732.321899,1666.947998 
	C1743.594849,1654.512329 1754.127319,1641.402222 1764.899902,1628.517090 
	C1770.916626,1621.320312 1777.145508,1614.256470 1782.606323,1606.650146 
	C1790.325317,1595.898315 1797.576294,1584.799194 1804.746460,1573.667725 
	C1813.659180,1559.831177 1822.571289,1545.978760 1830.936035,1531.810059 
	C1836.604370,1522.208862 1841.596313,1512.178833 1846.414307,1502.112305 
	C1853.507446,1487.292114 1860.642700,1472.460693 1866.892700,1457.277100 
	C1873.027222,1442.374146 1878.415527,1427.137329 1883.510376,1411.840210 
	C1888.727905,1396.174194 1893.638550,1380.374756 1897.844604,1364.412598 
	C1901.206055,1351.655640 1903.362793,1338.577759 1905.951294,1325.621582 
	C1907.724609,1316.744995 1909.729492,1307.886719 1910.904541,1298.925049 
	C1912.902344,1283.691406 1914.425293,1268.392334 1915.946411,1253.100830 
	C1916.566895,1246.863770 1916.915161,1240.575806 1916.950073,1234.308472 
	C1917.069946,1212.809937 1916.996826,1191.310425 1916.994629,1169.811279 
	C1916.994507,1168.645020 1917.077515,1167.465698 1916.939819,1166.314331 
	C1915.647339,1155.509277 1914.375244,1144.701050 1912.977295,1133.909302 
	C1911.502319,1122.522339 1911.651245,1111.039307 1908.222412,1099.751099 
	C1904.999023,1089.139282 1903.962891,1077.850586 1902.126831,1066.832520 
	C1899.306885,1049.909424 1895.014038,1033.355103 1890.087158,1016.942444 
	C1886.639282,1005.457153 1883.725220,993.797180 1879.887329,982.447083 
	C1875.317749,968.932983 1870.173584,955.604858 1864.978149,942.313538 
	C1860.944214,931.993896 1856.654663,921.761963 1852.106079,911.658813 
	C1846.636719,899.510132 1840.977173,887.436890 1835.022461,875.519714 
	C1828.917114,863.301208 1822.547729,851.204407 1815.938599,839.250732 
	C1809.388062,827.402649 1802.486938,815.744446 1795.555664,804.112671 
	C1792.140137,798.381104 1788.327148,792.885315 1784.662354,787.303528 
	C1779.433594,779.339600 1774.512939,771.145508 1768.857666,763.495422 
	C1758.235962,749.127136 1747.318359,734.971008 1736.265625,720.929932 
	C1727.367065,709.625427 1718.215576,698.512512 1708.933838,687.519531 
	C1702.418091,679.802490 1695.512695,672.413452 1688.746948,664.908936 
	C1683.437744,659.019836 1678.227539,653.030518 1672.696777,647.355286 
	C1666.629028,641.129150 1660.225586,635.231262 1654.002441,629.155457 
	C1647.103760,622.419983 1640.403076,615.472168 1633.322021,608.935608 
	C1626.094360,602.263733 1618.518555,595.968506 1611.078613,589.527588 
	C1604.717651,584.020752 1598.388306,578.475647 1591.945923,573.065247 
	C1583.546387,566.011230 1575.078613,559.037415 1566.584839,552.096680 
	C1559.634277,546.416931 1552.715576,540.688232 1545.578369,535.249451 
	C1536.973999,528.692688 1528.216187,522.331604 1519.412109,516.043701 
	C1506.111816,506.544678 1492.864136,496.959259 1479.310913,487.830994 
	C1468.064209,480.256165 1456.458618,473.207489 1444.918457,466.077118 
	C1435.898926,460.504028 1426.758179,455.125183 1417.630371,449.729401 
	C1408.150391,444.125397 1398.801636,438.262329 1389.069336,433.130981 
	C1375.756836,426.111969 1362.168091,419.612610 1348.639893,413.008850 
	C1333.478516,405.607910 1318.369385,398.082855 1303.018555,391.092773 
	C1290.435669,385.363037 1277.551880,380.289612 1264.764282,375.015564 
	C1252.828003,370.092621 1240.924805,365.071411 1228.851685,360.504364 
	C1219.990112,357.152191 1210.851074,354.540558 1201.884155,351.458038 
	C1192.935913,348.381927 1184.139771,344.834106 1175.110474,342.029633 
	C1163.288330,338.357758 1151.309204,335.189453 1139.385986,331.845856 
	C1122.848877,327.208435 1106.397095,322.219543 1089.728638,318.112030 
	C1075.270630,314.549286 1060.564575,311.991364 1045.963501,309.012543 
	C1036.009521,306.981781 1026.069458,304.872070 1016.082947,303.013641 
	C1004.765625,300.907623 993.406433,299.025391 982.059570,297.080017 
	C975.859253,296.016937 969.676147,294.762024 963.432678,294.064911 
	C955.110840,293.135681 946.712280,292.889801 938.392700,291.945374 
	C925.458008,290.477051 912.601379,288.182404 899.639343,287.129974 
	C884.674377,285.914948 869.636597,285.351044 854.620056,285.079407 
	C835.368958,284.731201 816.106201,284.808868 796.850891,284.976166 
	C777.920776,285.140625 758.992126,285.588409 740.065979,286.041534 
	C734.955566,286.163879 729.655945,286.003723 724.795654,287.297516 
	C715.844055,289.680420 707.238159,293.332733 698.337769,295.943085 
	C676.517578,302.342529 654.595215,308.392365 632.746765,314.696594 
	C619.543945,318.506165 606.419373,322.586609 593.224182,326.423248 
	C588.575256,327.774933 583.874207,329.327789 579.101379,329.779236 
	C572.704407,330.384308 566.345337,331.357788 561.836121,323.825439 
	C558.949829,319.004181 557.315857,314.250732 557.139465,309.085663 
	C556.898560,302.033142 557.322754,294.913818 558.044678,287.882965 
	C559.064392,277.951508 562.286194,268.921967 570.278687,262.163208 
	C579.558167,254.316101 588.815125,246.435623 597.883057,238.346817 
	C607.051392,230.168488 615.806274,221.522919 625.048767,213.432190 
	C638.592102,201.576630 652.433044,190.061661 666.096863,178.342941 
	C672.067688,173.222000 677.976196,168.024384 683.803894,162.741226 
	C694.825684,152.749359 705.768677,142.670517 717.169800,132.248016 
	C717.234741,131.886749 717.299622,131.525467 717.364502,131.164185 
	C716.845642,131.380432 716.326721,131.596680 715.054749,131.875748 
M496.141479,691.181641 
	C496.026428,690.835022 495.911377,690.488403 495.796326,690.141785 
	C495.674347,690.582214 495.552368,691.022644 496.141479,691.181641 
z"/>





<path fill="#22a4aa" opacity="1.000000" stroke="none" 
	d="
M1149.275879,1727.807373 
	C1136.010498,1717.600586 1122.902588,1707.789062 1110.132324,1697.556274 
	C1100.605835,1689.922852 1090.995850,1682.267578 1082.360596,1673.679321 
	C1071.040894,1662.421265 1060.567749,1650.303955 1049.876953,1638.424438 
	C1043.122314,1630.918579 1036.368896,1623.383423 1030.095825,1615.479492 
	C1022.490173,1605.896851 1015.299622,1595.978516 1008.102112,1586.079834 
	C1002.144165,1577.886108 996.295227,1569.604858 990.665710,1561.183350 
	C986.548889,1555.024536 982.723938,1548.657104 979.035278,1542.229858 
	C976.005798,1536.950928 973.273376,1531.494019 970.576355,1526.033447 
	C964.308655,1513.343628 957.826172,1500.745728 952.042908,1487.836304 
	C948.033325,1478.886353 944.687622,1469.591919 941.737061,1460.233276 
	C940.093262,1455.019287 939.806458,1449.367188 939.015686,1443.897095 
	C938.280151,1438.808716 936.951843,1433.664673 937.192383,1428.607544 
	C937.625000,1419.511841 938.910217,1410.444824 940.182129,1401.414185 
	C940.361023,1400.143921 942.474976,1399.146118 943.693237,1398.022217 
	C944.461304,1399.286011 945.723633,1400.478271 945.918579,1401.824951 
	C947.366821,1411.829956 947.377197,1422.230225 950.223450,1431.796997 
	C953.605347,1443.164062 958.944763,1454.032104 964.233826,1464.721680 
	C968.449768,1473.242798 973.549255,1481.380005 978.819763,1489.313477 
	C986.254761,1500.505005 994.056885,1511.462769 1001.987244,1522.312012 
	C1009.153259,1532.115479 1016.386292,1541.902832 1024.165771,1551.216187 
	C1032.982666,1561.771118 1042.390137,1571.836426 1051.635254,1582.028809 
	C1059.453735,1590.648315 1067.188599,1599.361450 1075.365356,1607.632690 
	C1082.869995,1615.223755 1090.920898,1622.274292 1098.720947,1629.573730 
	C1106.088379,1636.468384 1113.330688,1643.501953 1120.840698,1650.237183 
	C1126.175659,1655.021851 1131.863159,1659.413452 1137.394409,1663.979248 
	C1146.282715,1671.316284 1155.011597,1678.858887 1164.112305,1685.922485 
	C1171.122314,1691.363525 1178.596558,1696.207275 1185.871216,1701.306763 
	C1192.537598,1705.980103 1199.190674,1710.672729 1205.890747,1715.297607 
	C1214.423584,1721.187866 1222.895264,1727.175537 1231.577393,1732.839111 
	C1245.654419,1742.021851 1260.261597,1750.446289 1273.884888,1760.247314 
	C1280.761719,1765.194824 1285.953491,1772.477051 1291.944214,1778.667725 
	C1294.075195,1780.869751 1296.485596,1782.824097 1298.438721,1785.166382 
	C1299.520752,1786.463989 1299.921387,1788.329956 1300.629028,1789.939697 
	C1298.772339,1790.507202 1296.847412,1791.710571 1295.071655,1791.520752 
	C1290.099609,1790.988525 1285.181641,1789.103027 1280.255859,1789.151001 
	C1267.106323,1789.278564 1255.656738,1784.793701 1244.457886,1778.435791 
	C1237.786133,1774.648071 1230.317627,1772.288330 1223.327026,1769.030151 
	C1216.505249,1765.850586 1209.787720,1762.436768 1203.110474,1758.960449 
	C1193.277100,1753.840942 1183.377441,1748.822388 1173.773682,1743.295776 
	C1165.514038,1738.542480 1157.628906,1733.138306 1149.275879,1727.807373 
z"/>
<path fill="#22a4aa" opacity="1.000000" stroke="none" 
	d="
M1002.077942,633.006592 
	C987.004944,628.358337 972.483887,623.147217 957.625061,619.211121 
	C941.291809,614.884399 924.727417,611.304138 908.113342,608.205017 
	C895.341919,605.822754 882.319580,604.813416 869.443115,602.956421 
	C861.424255,601.799927 853.472839,600.180298 845.484314,598.808289 
	C837.952454,597.514587 830.428467,596.160339 822.870728,595.036743 
	C813.221252,593.602112 803.545044,592.343628 793.870911,591.081665 
	C792.230835,590.867676 790.540894,590.952576 788.877869,591.010193 
	C767.516541,591.750610 746.239136,590.362427 725.046143,587.957581 
	C718.234192,587.184631 713.023987,582.435059 707.726135,578.299255 
	C705.084961,576.237366 702.120850,574.584656 699.275391,572.790222 
	C696.650024,571.134644 695.084900,569.238159 697.312866,566.143005 
	C698.862854,563.989868 700.686951,561.939819 701.763611,559.560852 
	C703.736267,555.201782 706.468018,552.766785 711.496704,551.805542 
	C719.487854,550.278015 727.264465,547.622742 735.126404,545.425110 
	C751.680603,540.797852 768.590088,539.191223 785.689758,540.070374 
	C797.164612,540.660461 808.652039,541.565369 820.046082,543.018188 
	C832.594299,544.618164 845.200500,546.334534 857.490234,549.234436 
	C870.622925,552.333313 883.653564,556.233398 896.299561,560.937561 
	C914.103516,567.560242 931.772705,574.680298 949.020081,582.627869 
	C967.998535,591.373169 985.975708,602.090637 1002.847229,614.497070 
	C1012.906982,621.894531 1021.621521,630.645813 1028.213013,641.394348 
	C1029.467163,643.439453 1031.419067,645.056763 1033.202881,647.042664 
	C1027.795044,649.946167 1025.334595,645.117065 1021.916992,643.388062 
	C1015.364624,640.073059 1008.951721,636.482239 1002.077942,633.006592 
z"/>
<path fill="#22a4aa" opacity="1.000000" stroke="none" 
	d="
M740.998718,746.998657 
	C756.486267,740.255371 772.046021,735.014282 788.775879,736.208557 
	C796.204468,736.738831 803.487427,739.341797 810.828491,741.038879 
	C812.388428,741.399475 813.913391,741.911621 815.766113,742.443420 
	C815.766113,743.362000 815.766113,744.582764 815.766113,745.669861 
	C812.143494,745.436951 808.748413,745.293823 805.368164,744.987427 
	C795.231140,744.068359 786.010864,747.541016 777.494873,752.117004 
	C769.012939,756.674683 760.938232,762.244507 753.427979,768.292969 
	C743.558289,776.241699 734.170898,784.838745 725.032471,793.631226 
	C716.802856,801.549133 708.702820,809.703552 701.420044,818.479309 
	C691.110779,830.901978 681.667175,844.039917 671.727661,856.773804 
	C667.195923,862.579590 662.170105,868.003784 657.717224,873.866028 
	C652.472656,880.770569 647.558044,887.928711 642.589050,895.038757 
	C637.481689,902.346924 632.258423,909.588684 627.492737,917.117004 
	C622.024536,925.755005 616.903320,934.618591 611.811401,943.487488 
	C603.797729,957.445251 596.271118,971.697937 587.798401,985.367126 
	C585.319275,989.366516 580.464722,991.997314 576.439819,994.895447 
	C574.053589,996.613647 571.160828,997.628357 568.495850,998.959351 
	C567.996948,995.772522 567.437378,992.593811 567.012573,989.397156 
	C566.269653,983.806946 564.669495,978.125061 565.141113,972.628479 
	C565.801636,964.930054 567.487000,957.203125 569.711243,949.781311 
	C573.425293,937.388123 577.414001,925.026550 582.226135,913.028198 
	C586.411438,902.593140 591.779480,892.620483 596.848938,882.556396 
	C599.896912,876.505432 603.138489,870.523804 606.720764,864.777710 
	C610.752747,858.310242 615.013733,851.950134 619.638062,845.896973 
	C624.558472,839.456299 629.773560,833.198181 635.308289,827.279602 
	C642.655334,819.423157 650.038818,811.517456 658.122986,804.452698 
	C670.790710,793.382507 683.645630,782.435120 697.205994,772.507629 
	C707.449890,765.008057 718.888428,759.130066 729.863159,752.645203 
	C733.333923,750.594360 737.023621,748.914062 740.998718,746.998657 
z"/>
<path fill="#22a4aa" opacity="1.000000" stroke="none" 
	d="
M740.993408,1371.162354 
	C741.329346,1379.257324 742.307190,1386.911743 741.862244,1394.482422 
	C741.036255,1408.535767 739.442505,1422.546753 737.959229,1436.553345 
	C737.829407,1437.779297 736.154358,1438.841553 735.197021,1439.979858 
	C734.343872,1439.048340 733.072693,1438.258789 732.700989,1437.163818 
	C728.198853,1423.900513 721.318970,1411.467407 718.951294,1397.454224 
	C717.423706,1388.412842 715.681458,1379.407349 713.990295,1370.394043 
	C712.522156,1362.570068 710.874390,1354.777832 709.524963,1346.933960 
	C708.504822,1341.004517 707.758606,1335.024292 707.020996,1329.050659 
	C706.250427,1322.810181 705.648010,1316.548950 704.949951,1310.299316 
	C704.315125,1304.615845 703.313843,1298.950195 703.067627,1293.251099 
	C702.516785,1280.497437 701.798828,1267.713501 702.144104,1254.968750 
	C702.544128,1240.203979 703.576111,1225.421631 705.145630,1210.733765 
	C706.521423,1197.858276 708.809143,1185.064819 711.094543,1172.306885 
	C712.734924,1163.149658 714.954468,1154.091675 717.065247,1145.024292 
	C718.966064,1136.858643 720.399414,1128.498169 723.229675,1120.653320 
	C728.541748,1105.929443 734.247375,1091.305664 740.682495,1077.043213 
	C745.413940,1066.556641 750.991699,1056.335327 757.282410,1046.708130 
	C761.795532,1039.801392 768.155823,1034.111206 773.599548,1027.798584 
	C776.117737,1024.878662 778.276794,1021.643982 780.850525,1018.778198 
	C783.645508,1015.666077 786.645203,1012.720276 789.737732,1009.901672 
	C790.952454,1008.794495 792.660645,1008.228821 794.144165,1007.416504 
	C794.665955,1007.860840 795.187683,1008.305176 795.709473,1008.749573 
	C794.514893,1010.632568 793.392639,1012.566345 792.112793,1014.389587 
	C787.363098,1021.155151 781.939026,1027.536377 777.928345,1034.710449 
	C772.206848,1044.944580 766.665833,1055.437622 762.597168,1066.395386 
	C758.143066,1078.391235 755.103333,1090.957764 752.101746,1103.433105 
	C749.642212,1113.655273 748.109802,1124.102661 746.240845,1134.463501 
	C745.749146,1137.189453 745.501831,1139.961548 745.196899,1142.718506 
	C744.102539,1152.612793 742.780518,1162.489990 742.010010,1172.409912 
	C740.825806,1187.655640 740.024719,1202.931274 739.064880,1218.194336 
	C738.703613,1223.940186 738.935669,1229.794434 737.894714,1235.413452 
	C733.740784,1257.835449 736.656006,1280.410156 736.213196,1302.896118 
	C735.995056,1313.975708 738.072937,1325.094116 738.992188,1336.204834 
	C739.466553,1341.938477 739.680298,1347.693726 740.009583,1353.439331 
	C740.338989,1359.187378 740.665588,1364.935669 740.993408,1371.162354 
z"/>
<path fill="#22a4aa" opacity="1.000000" stroke="none" 
	d="
M418.669678,354.856750 
	C427.092804,346.007568 434.921570,337.060455 443.610107,329.045288 
	C449.746887,323.384094 456.456329,317.504272 464.013824,314.481476 
	C470.340454,311.950958 478.264099,313.335358 485.484772,313.166840 
	C487.545624,313.118774 489.732300,313.393341 491.655792,314.088470 
	C493.270172,314.671967 494.639954,316.017029 496.011597,317.153381 
	C496.756073,317.770172 497.178711,318.774475 497.921417,319.394470 
	C499.558594,320.761108 502.771027,322.036102 502.736206,323.275208 
	C502.629669,327.061584 502.138641,331.320465 500.252625,334.470917 
	C496.544891,340.664490 492.097076,346.495026 487.368744,351.968994 
	C484.320984,355.497406 480.319305,358.240448 476.585785,361.129517 
	C469.546967,366.576202 462.361816,371.833374 455.294983,377.244354 
	C446.418701,384.040833 437.547546,390.846375 428.789307,397.793152 
	C426.221252,399.830048 424.478027,399.206390 422.564758,397.044250 
	C418.879059,392.879150 415.624481,388.634857 414.906281,382.756592 
	C414.458496,379.091644 412.559540,375.609467 412.064331,371.943604 
	C411.172363,365.340515 414.369446,360.018616 418.669678,354.856750 
z"/>
<path fill="#22a4aa" opacity="1.000000" stroke="none" 
	d="
M1322.665039,902.375610 
	C1329.107666,908.414001 1335.343750,914.130981 1341.572754,919.855591 
	C1344.636963,922.671631 1347.679199,925.511536 1350.747070,928.323608 
	C1360.067505,936.866821 1368.949097,945.971069 1378.869995,953.749268 
	C1386.068359,959.393005 1389.208008,965.795898 1385.830078,973.906433 
	C1382.557739,981.764038 1381.148315,990.551575 1375.075195,997.201843 
	C1372.057739,1000.506226 1364.433838,1001.232727 1360.275146,997.698792 
	C1351.904175,990.585388 1343.447754,983.525635 1335.591919,975.864136 
	C1324.317749,964.868774 1313.472168,953.428223 1302.592529,942.035767 
	C1295.934692,935.064148 1290.324219,927.338074 1285.809814,918.725220 
	C1282.337524,912.100708 1282.031006,905.837036 1285.319824,899.415833 
	C1290.354004,898.241272 1295.326050,897.050537 1300.313110,895.926270 
	C1305.456421,894.766785 1310.449341,893.397278 1314.935059,898.199768 
	C1316.744507,900.137024 1319.908203,900.809387 1322.665039,902.375610 
z"/>
</svg>